<svg width="206" height="175" viewBox="0 0 206 175" xmlns="http://www.w3.org/2000/svg">
    <g fill="none" fill-rule="evenodd">
        <path d="M109.43 58.23c-3.58-2.067-9.44-2.067-13.02 0L2.674 112.35c-3.58 2.067-3.562 5.417.04 7.445l93.657 52.712c3.603 2.027 9.498 2.027 13.1 0l93.658-52.712c3.602-2.028 3.62-5.378.04-7.445L109.43 58.23z" fill-opacity=".2" fill="#FF8F52"/>
        <path d="M88.978 92.814L66.643 105.71c-1.13.65-3.12.57-4.426-.184L39.85 88.66c-1.305-.754-1.448-1.903-.318-2.555l15.49-8.943c1.13-.653 3.12-.57 4.425.183L88.66 90.26c1.305.752 1.448 1.902.318 2.554z" stroke="#33475C" stroke-width="6" stroke-linecap="round" stroke-linejoin="round"/>
        <path d="M88.978 92.814L66.643 105.71c-1.13.65-3.12.57-4.426-.184L39.85 88.66c-1.305-.754-1.448-1.903-.318-2.555l15.49-8.943c1.13-.653 3.12-.57 4.425.183L88.66 90.26c1.305.752 1.448 1.902.318 2.554z" stroke="#33475C" stroke-width="6" stroke-linecap="round" stroke-linejoin="round"/>
        <path d="M88.978 92.814L66.643 105.71c-1.13.65-3.12.57-4.426-.184L39.85 88.66c-1.305-.754-1.448-1.903-.318-2.555l15.49-8.943c1.13-.653 3.12-.57 4.425.183L88.66 90.26c1.305.752 1.448 1.902.318 2.554z" stroke="#33475C" stroke-width="6" stroke-linecap="round" stroke-linejoin="round"/>
        <path d="M21.584 50.23c0-2.75 1.95-6.125 4.33-7.5L40.7 34.194l19.114-11.036L78.93 12.122l14.784-8.537c1.03-.594 1.977-.72 2.723-.45l4.81 2.777c-.745-.27-1.693-.144-2.723.45L83.74 14.9 64.623 25.934 45.51 36.97l-14.786 8.537c-2.38 1.375-4.33 4.75-4.33 7.5v56.218c0 1.18.362 2.06.962 2.573l-4.81-2.777c-.6-.51-.962-1.39-.962-2.573V50.23z" stroke="#33475C" stroke-width="6" stroke-linecap="round" stroke-linejoin="round"/>
        <path d="M102.855 48.007V65.08c0 2.75-1.95 6.124-4.33 7.5L83.74 81.114 64.625 92.15 45.51 103.19l-14.785 8.536c-2.382 1.375-4.33.25-4.33-2.5V53.008c0-2.75 1.948-6.125 4.33-7.5L45.51 36.97l19.115-11.035L83.74 14.9l14.785-8.54c2.38-1.375 4.33-.25 4.33 2.5v39.147" stroke="#33475C" stroke-width="6" stroke-linecap="round" stroke-linejoin="round"/>
        <path d="M102.855 58.55v6.53c0 2.75-1.95 6.124-4.33 7.5L83.74 81.114 64.625 92.15 45.51 103.188l-14.785 8.536c-2.382 1.375-4.33.25-4.33-2.5v-6.528l76.46-44.144z" stroke="#33475C" stroke-width="6" stroke-linecap="round" stroke-linejoin="round"/>
        <path d="M102.855 48.007V65.08c0 2.75-1.95 6.124-4.33 7.5L83.74 81.114 64.625 92.15 45.51 103.19l-14.785 8.536c-2.382 1.375-4.33.25-4.33-2.5V53.008c0-2.75 1.948-6.125 4.33-7.5L45.51 36.97l19.115-11.035L83.74 14.9l14.785-8.54c2.38-1.375 4.33-.25 4.33 2.5v39.147" stroke="#33475C" stroke-width="6" stroke-linecap="round" stroke-linejoin="round"/>
        <path d="M102.855 58.55v6.53c0 2.75-1.95 6.124-4.33 7.5L83.74 81.114 64.625 92.15 45.51 103.188l-14.785 8.536c-2.382 1.375-4.33.25-4.33-2.5v-6.528l76.46-44.144z" stroke="#33475C" stroke-width="6" stroke-linecap="round" stroke-linejoin="round"/>
        <path stroke="#33475C" stroke-width="6" stroke-linecap="round" stroke-linejoin="round" d="M73.268 21.676L55.684 94.554l13.28-8.15 17.67-73.23-7.412-1.222-14.425 8.33z"/>
        <path stroke="#33475C" stroke-width="6" stroke-linecap="round" stroke-linejoin="round" d="M57.648 24.408l4.097-2.366 8.422 1.387-17.175 71.18-2.916-.703 16.417-68.042z"/>
        <path stroke="#33475C" stroke-width="6" stroke-linecap="round" stroke-linejoin="round" d="M68.21 18.31l7.597-4.386 7.765 1.28-16.796 69.61-7.242 4.446L76.33 19.647z"/>
        <path d="M21.584 50.23c0-2.75 1.95-6.125 4.33-7.5L40.7 34.194l19.114-11.036L78.93 12.122l14.784-8.537c1.03-.594 1.977-.72 2.723-.45l4.81 2.777c-.745-.27-1.693-.144-2.723.45L83.74 14.9 64.623 25.934 45.51 36.97l-14.786 8.537c-2.38 1.375-4.33 4.75-4.33 7.5v56.218c0 1.18.362 2.06.962 2.573l-4.81-2.777c-.6-.51-.962-1.39-.962-2.573V50.23z" stroke="#33475C" stroke-width="6" stroke-linecap="round" stroke-linejoin="round"/>
        <path d="M102.855 58.55v6.53c0 2.75-1.95 6.124-4.33 7.5L83.74 81.114 64.625 92.15 45.51 103.188l-14.785 8.536c-2.382 1.375-4.33.25-4.33-2.5v-6.528l76.46-44.144z" stroke="#33475C" stroke-width="6" stroke-linecap="round" stroke-linejoin="round"/>
        <path d="M21.584 106.446v-6.598l4.81 2.777v6.598c0 1.183.363 2.062.963 2.574l-4.81-2.777c-.6-.512-.963-1.39-.963-2.574z" stroke="#33475C" stroke-width="6" stroke-linecap="round" stroke-linejoin="round"/>
        <path d="M88.978 92.814L66.643 105.71c-1.13.65-3.12.57-4.426-.184L39.85 88.66c-1.305-.754-1.448-1.903-.318-2.555l15.49-8.943c1.13-.653 3.12-.57 4.425.183L88.66 90.26c1.305.752 1.448 1.902.318 2.554" fill="#EBF0F7"/>
        <path d="M88.978 92.814L66.643 105.71c-1.13.65-3.12.57-4.426-.184L39.85 88.66c-1.305-.754-1.448-1.903-.318-2.555l15.49-8.943c1.13-.653 3.12-.57 4.425.183L88.66 90.26c1.305.752 1.448 1.902.318 2.554z" stroke="#33475C" stroke-linecap="round" stroke-linejoin="round"/>
        <path d="M88.978 92.814L66.643 105.71c-1.13.65-3.12.57-4.426-.184L39.85 88.66c-1.305-.754-1.448-1.903-.318-2.555l15.49-8.943c1.13-.653 3.12-.57 4.425.183L88.66 90.26c1.305.752 1.448 1.902.318 2.554" fill="#EBF0F7"/>
        <path d="M88.978 92.814L66.643 105.71c-1.13.65-3.12.57-4.426-.184L39.85 88.66c-1.305-.754-1.448-1.903-.318-2.555l15.49-8.943c1.13-.653 3.12-.57 4.425.183L88.66 90.26c1.305.752 1.448 1.902.318 2.554z" stroke="#33475C" stroke-linecap="round" stroke-linejoin="round"/>
        <path d="M21.584 50.23c0-2.75 1.95-6.125 4.33-7.5L40.7 34.194l19.114-11.036L78.93 12.122l14.784-8.537c1.03-.594 1.977-.72 2.723-.45l4.81 2.777c-.745-.27-1.693-.144-2.723.45L83.74 14.9 64.623 25.934 45.51 36.97l-14.786 8.537c-2.38 1.375-4.33 4.75-4.33 7.5v56.218c0 1.18.362 2.06.962 2.573l-4.81-2.777c-.6-.51-.962-1.39-.962-2.573V50.23z" fill="#7C98B6"/>
        <path d="M21.584 50.23c0-2.75 1.95-6.125 4.33-7.5L40.7 34.194l19.114-11.036L78.93 12.122l14.784-8.537c1.03-.594 1.977-.72 2.723-.45l4.81 2.777c-.745-.27-1.693-.144-2.723.45L83.74 14.9 64.623 25.934 45.51 36.97l-14.786 8.537c-2.38 1.375-4.33 4.75-4.33 7.5v56.218c0 1.18.362 2.06.962 2.573l-4.81-2.777c-.6-.51-.962-1.39-.962-2.573V50.23z" stroke="#33475C" stroke-linecap="round" stroke-linejoin="round"/>
        <path d="M102.855 48.007V65.08c0 2.75-1.95 6.124-4.33 7.5L83.74 81.114 64.625 92.15 45.51 103.19l-14.785 8.536c-2.382 1.375-4.33.25-4.33-2.5V53.008c0-2.75 1.948-6.125 4.33-7.5L45.51 36.97l19.115-11.035L83.74 14.9l14.785-8.54c2.38-1.375 4.33-.25 4.33 2.5v39.147" fill="#7C98B6"/>
        <path d="M102.855 48.007V65.08c0 2.75-1.95 6.124-4.33 7.5L83.74 81.114 64.625 92.15 45.51 103.19l-14.785 8.536c-2.382 1.375-4.33.25-4.33-2.5V53.008c0-2.75 1.948-6.125 4.33-7.5L45.51 36.97l19.115-11.035L83.74 14.9l14.785-8.54c2.38-1.375 4.33-.25 4.33 2.5v39.147" stroke="#33475C" stroke-linecap="round" stroke-linejoin="round"/>
        <path d="M102.855 58.55v6.53c0 2.75-1.95 6.124-4.33 7.5L83.74 81.114 64.625 92.15 45.51 103.188l-14.785 8.536c-2.382 1.375-4.33.25-4.33-2.5v-6.528l76.46-44.144z" fill="#EBF0F7"/>
        <path d="M102.855 58.55v6.53c0 2.75-1.95 6.124-4.33 7.5L83.74 81.114 64.625 92.15 45.51 103.188l-14.785 8.536c-2.382 1.375-4.33.25-4.33-2.5v-6.528l76.46-44.144z" stroke="#33475C" stroke-linecap="round" stroke-linejoin="round"/>
        <path d="M102.855 48.007V65.08c0 2.75-1.95 6.124-4.33 7.5L83.74 81.114 64.625 92.15 45.51 103.19l-14.785 8.536c-2.382 1.375-4.33.25-4.33-2.5V53.008c0-2.75 1.948-6.125 4.33-7.5L45.51 36.97l19.115-11.035L83.74 14.9l14.785-8.54c2.38-1.375 4.33-.25 4.33 2.5v39.147" stroke="#33475C" stroke-linecap="round" stroke-linejoin="round"/>
        <path d="M102.855 58.55v6.53c0 2.75-1.95 6.124-4.33 7.5L83.74 81.114 64.625 92.15 45.51 103.188l-14.785 8.536c-2.382 1.375-4.33.25-4.33-2.5v-6.528l76.46-44.144z" stroke="#33475C" stroke-linecap="round" stroke-linejoin="round"/>
        <path fill-opacity=".25" fill="#E6EFF7" d="M73.268 21.676L55.684 94.554l13.28-8.15 17.67-73.23-7.412-1.222-14.425 8.33"/>
        <path fill-opacity=".25" fill="#E6EFF7" d="M57.648 24.408l4.097-2.366 8.422 1.387-17.175 71.18-2.916-.703 16.417-68.042"/>
        <path fill-opacity=".25" fill="#E6EFF7" d="M68.21 18.31l7.597-4.386 7.765 1.28-16.796 69.61-7.242 4.446L76.33 19.647"/>
        <path d="M21.584 50.23c0-2.75 1.95-6.125 4.33-7.5L40.7 34.194l19.114-11.036L78.93 12.122l14.784-8.537c1.03-.594 1.977-.72 2.723-.45l4.81 2.777c-.745-.27-1.693-.144-2.723.45L83.74 14.9 64.623 25.934 45.51 36.97l-14.786 8.537c-2.38 1.375-4.33 4.75-4.33 7.5v56.218c0 1.18.362 2.06.962 2.573l-4.81-2.777c-.6-.51-.962-1.39-.962-2.573V50.23z" stroke="#33475C" stroke-linecap="round" stroke-linejoin="round"/>
        <path d="M102.855 58.55v6.53c0 2.75-1.95 6.124-4.33 7.5L83.74 81.114 64.625 92.15 45.51 103.188l-14.785 8.536c-2.382 1.375-4.33.25-4.33-2.5v-6.528l76.46-44.144z" fill="#EBF0F7"/>
        <path d="M102.855 58.55v6.53c0 2.75-1.95 6.124-4.33 7.5L83.74 81.114 64.625 92.15 45.51 103.188l-14.785 8.536c-2.382 1.375-4.33.25-4.33-2.5v-6.528l76.46-44.144z" stroke="#33475C" stroke-linecap="round" stroke-linejoin="round"/>
        <path d="M21.584 106.446v-6.598l4.81 2.777v6.598c0 1.183.363 2.062.963 2.574l-4.81-2.777c-.6-.512-.963-1.39-.963-2.574" fill="#EBF0F7"/>
        <path d="M21.584 106.446v-6.598l4.81 2.777v6.598c0 1.183.363 2.062.963 2.574l-4.81-2.777c-.6-.512-.963-1.39-.963-2.574z" stroke="#33475C" stroke-linecap="round" stroke-linejoin="round"/>
        <path d="M105.81 79.993L67.94 58.128" fill="#FFF"/>
        <path d="M105.81 79.993L67.94 58.128" stroke="#FFF" stroke-linecap="round" stroke-linejoin="round" stroke-dasharray="2,2,0,0"/>
        <path d="M118.93 20.622c-.952-.55-1.73-.1-1.73 1V73.01c0 1.1.778 2.45 1.73 3l64.177 37.053c.953.55 1.732.1 1.732-1v-51.39c0-1.1-.78-2.45-1.733-3l-64.176-37.05z" stroke="#33475C" stroke-width="5" stroke-linecap="round" stroke-linejoin="round"/>
        <path d="M118.93 20.622c-.952-.55-1.73-.1-1.73 1V73.01c0 1.1.778 2.45 1.73 3l64.177 37.053c.953.55 1.732.1 1.732-1v-51.39c0-1.1-.78-2.45-1.733-3l-64.176-37.05z" stroke="#33475C" stroke-width="5" stroke-linecap="round" stroke-linejoin="round"/>
        <path d="M183.107 57.674L118.93 20.622c-.952-.55-1.73-.1-1.73 1v3.388l67.64 39.052v-3.388c0-1.1-.78-2.45-1.733-3zm-61.553-21.149c0 1.65 1.17 3.675 2.598 4.5L177.456 71.8c1.43.825 2.598.15 2.598-1.5s-1.17-3.675-2.598-4.5l-53.304-30.775c-1.43-.825-2.598-.15-2.598 1.5z" stroke="#33475C" stroke-width="5" stroke-linecap="round" stroke-linejoin="round"/>
        <path d="M121.554 36.525c0 1.65 1.17 3.675 2.598 4.5L177.456 71.8c1.43.825 2.598.15 2.598-1.5s-1.17-3.675-2.598-4.5l-53.304-30.775c-1.43-.825-2.598-.15-2.598 1.5z" stroke="#33475C" stroke-width="5" stroke-linecap="round" stroke-linejoin="round"/>
        <path d="M118.93 20.622c-.952-.55-1.73-.1-1.73 1V73.01c0 1.1.778 2.45 1.73 3l64.177 37.053c.953.55 1.732.1 1.732-1v-51.39c0-1.1-.78-2.45-1.733-3l-64.176-37.05z" stroke="#33475C" stroke-width="5" stroke-linecap="round" stroke-linejoin="round"/>
        <path d="M118.93 20.622c-.952-.55-1.73-.1-1.73 1V73.01c0 1.1.778 2.45 1.73 3l64.177 37.053c.953.55 1.732.1 1.732-1v-51.39c0-1.1-.78-2.45-1.733-3l-64.176-37.05z" stroke="#33475C" stroke-width="5" stroke-linecap="round" stroke-linejoin="round"/>
        <path d="M183.107 57.674L118.93 20.622c-.952-.55-1.73-.1-1.73 1v3.388l67.64 39.052v-3.388c0-1.1-.78-2.45-1.733-3zm-61.553-21.149c0 1.65 1.17 3.675 2.598 4.5L177.456 71.8c1.43.825 2.598.15 2.598-1.5s-1.17-3.675-2.598-4.5l-53.304-30.775c-1.43-.825-2.598-.15-2.598 1.5z" stroke="#33475C" stroke-width="5" stroke-linecap="round" stroke-linejoin="round"/>
        <path d="M121.554 36.525c0 1.65 1.17 3.675 2.598 4.5L177.456 71.8c1.43.825 2.598.15 2.598-1.5s-1.17-3.675-2.598-4.5l-53.304-30.775c-1.43-.825-2.598-.15-2.598 1.5zm1.496 9.599c-.42-.242-.764-.044-.764.44v22.64c0 .486.343 1.08.763 1.323l28.274 16.325c.42.242.763.044.763-.44V63.77c0-.484-.343-1.08-.763-1.32L123.05 46.123zm41.6 23.126l14.806 8.55m-20.646-9.77l20.646 11.984M164.65 73.68l14.806 8.55m-18.771-8.55l18.77 10.763m-14.805-2.015l14.806 8.55m-20.646-9.772l20.646 11.985m-14.806-6.334l14.806 8.55m-18.771-8.55l18.77 10.763m-14.805-2.015l14.806 8.55m-20.646-9.772l20.646 11.986m-14.806-6.335l14.806 8.55" stroke="#33475C" stroke-width="5" stroke-linecap="round" stroke-linejoin="round"/>
        <path d="M118.93 20.622c-.952-.55-1.73-.1-1.73 1V73.01c0 1.1.778 2.45 1.73 3l64.177 37.053c.953.55 1.732.1 1.732-1v-51.39c0-1.1-.78-2.45-1.733-3l-64.176-37.05z" stroke="#33475C" stroke-width="5" stroke-linecap="round" stroke-linejoin="round"/>
        <path d="M118.93 20.622c-.952-.55-1.73-.1-1.73 1V73.01c0 1.1.778 2.45 1.73 3l64.177 37.053c.953.55 1.732.1 1.732-1v-51.39c0-1.1-.78-2.45-1.733-3l-64.176-37.05z" stroke="#33475C" stroke-width="5" stroke-linecap="round" stroke-linejoin="round"/>
        <path d="M183.107 57.674L118.93 20.622c-.952-.55-1.73-.1-1.73 1v3.388l67.64 39.052v-3.388c0-1.1-.78-2.45-1.733-3zm-61.553-21.149c0 1.65 1.17 3.675 2.598 4.5L177.456 71.8c1.43.825 2.598.15 2.598-1.5s-1.17-3.675-2.598-4.5l-53.304-30.775c-1.43-.825-2.598-.15-2.598 1.5z" stroke="#33475C" stroke-width="5" stroke-linecap="round" stroke-linejoin="round"/>
        <path d="M121.554 36.525c0 1.65 1.17 3.675 2.598 4.5L177.456 71.8c1.43.825 2.598.15 2.598-1.5s-1.17-3.675-2.598-4.5l-53.304-30.775c-1.43-.825-2.598-.15-2.598 1.5z" stroke="#33475C" stroke-width="5" stroke-linecap="round" stroke-linejoin="round"/>
        <path d="M118.93 20.622c-.952-.55-1.73-.1-1.73 1V73.01c0 1.1.778 2.45 1.73 3l64.177 37.053c.953.55 1.732.1 1.732-1v-51.39c0-1.1-.78-2.45-1.733-3l-64.176-37.05z" fill="#FFF"/>
        <path d="M118.93 20.622c-.952-.55-1.73-.1-1.73 1V73.01c0 1.1.778 2.45 1.73 3l64.177 37.053c.953.55 1.732.1 1.732-1v-51.39c0-1.1-.78-2.45-1.733-3l-64.176-37.05z" stroke="#33475C" stroke-linecap="round" stroke-linejoin="round"/>
        <path d="M183.107 57.674L118.93 20.622c-.952-.55-1.73-.1-1.73 1v3.388l67.64 39.052v-3.388c0-1.1-.78-2.45-1.733-3" fill="#CBD6E3"/>
        <path d="M183.107 57.674L118.93 20.622c-.952-.55-1.73-.1-1.73 1v3.388l67.64 39.052v-3.388c0-1.1-.78-2.45-1.733-3z" stroke="#33475C" stroke-linecap="round" stroke-linejoin="round"/>
        <path d="M121.554 36.525c0 1.65 1.17 3.675 2.598 4.5L177.456 71.8c1.43.825 2.598.15 2.598-1.5s-1.17-3.675-2.598-4.5l-53.304-30.775c-1.43-.825-2.598-.15-2.598 1.5" fill="#E4EBEF"/>
        <path d="M121.554 36.525c0 1.65 1.17 3.675 2.598 4.5L177.456 71.8c1.43.825 2.598.15 2.598-1.5s-1.17-3.675-2.598-4.5l-53.304-30.775c-1.43-.825-2.598-.15-2.598 1.5z" stroke="#33475C" stroke-linecap="round" stroke-linejoin="round"/>
        <path d="M123.05 46.124c-.42-.242-.764-.044-.764.44v22.64c0 .486.343 1.08.763 1.323l28.274 16.325c.42.242.763.044.763-.44V63.77c0-.484-.343-1.08-.763-1.32L123.05 46.123z" fill="#EBF0F7"/>
        <path d="M164.65 69.25l14.806 8.55" stroke="#7C98B6" stroke-linecap="round" stroke-linejoin="round"/>
        <path d="M158.81 68.03l20.646 11.984" fill="#33475C"/>
        <path d="M158.81 68.03l20.646 11.984" stroke="#CBD6E3" stroke-linecap="round" stroke-linejoin="round"/>
        <path d="M164.65 73.68l14.806 8.55" fill="#33475C"/>
        <path d="M164.65 73.68l14.806 8.55" stroke="#D4E7F8" stroke-linecap="round" stroke-linejoin="round"/>
        <path d="M160.685 73.68l18.77 10.763" fill="#33475C"/>
        <path d="M160.685 73.68l18.77 10.763" stroke="#D4E7F8" stroke-linecap="round" stroke-linejoin="round"/>
        <path d="M164.65 82.428l14.806 8.55" stroke="#7C98B6" stroke-linecap="round" stroke-linejoin="round"/>
        <path d="M158.81 81.206l20.646 11.985" fill="#33475C"/>
        <path d="M158.81 81.206l20.646 11.985" stroke="#CBD6E3" stroke-linecap="round" stroke-linejoin="round"/>
        <path d="M164.65 86.857l14.806 8.55" fill="#33475C"/>
        <path d="M164.65 86.857l14.806 8.55" stroke="#D4E7F8" stroke-linecap="round" stroke-linejoin="round"/>
        <path d="M160.685 86.857l18.77 10.763" fill="#33475C"/>
        <path d="M160.685 86.857l18.77 10.763" stroke="#D4E7F8" stroke-linecap="round" stroke-linejoin="round"/>
        <path d="M164.65 95.605l14.806 8.55" stroke="#7C98B6" stroke-linecap="round" stroke-linejoin="round"/>
        <path d="M158.81 94.383l20.646 11.986" fill="#33475C"/>
        <path d="M158.81 94.383l20.646 11.986" stroke="#CBD6E3" stroke-linecap="round" stroke-linejoin="round"/>
        <path d="M164.65 100.034l14.806 8.55" fill="#33475C"/>
        <path d="M164.65 100.034l14.806 8.55" stroke="#D4E7F8" stroke-linecap="round" stroke-linejoin="round"/>
        <path d="M141.908 102.534h.01-.01z" fill="#33475C"/>
        <path d="M137.186 62.53l-10.373 5.988" fill="#FFF"/>
        <path d="M137.186 62.53l-.866.5" stroke="#33475C" stroke-linecap="round" stroke-linejoin="round"/>
        <path d="M134.592 64.027l-6.913 3.99" stroke="#33475C" stroke-linecap="round" stroke-linejoin="round" stroke-dasharray="1.996,1.996,0,0"/>
        <path d="M127.68 68.018l-.867.5" stroke="#33475C" stroke-linecap="round" stroke-linejoin="round"/>
        <path d="M40.599 87.654L78.466 65.79" fill="#FFF"/>
        <path d="M40.599 87.654L78.466 65.79" stroke="#FFF" stroke-linecap="round" stroke-linejoin="round" stroke-dasharray="2,2,0,0"/>
        <path d="M75.036 107.987l-33.85-19.543" fill="#FFF"/>
        <path d="M75.036 107.987l-33.85-19.543" stroke="#33475C" stroke-linecap="round" stroke-linejoin="round" stroke-dasharray="2,2,0,0"/>
        <path d="M121.478 102.91l-7.1-4.1" fill="#FFF"/>
        <path d="M121.478 102.91l-7.1-4.1" stroke="#33475C" stroke-linecap="round" stroke-linejoin="round" stroke-dasharray="2,2,0,0"/>
        <path d="M100.964 125.69l-7.1-4.098" fill="#FFF"/>
        <path d="M100.964 125.69l-7.1-4.098" stroke="#33475C" stroke-linecap="round" stroke-linejoin="round" stroke-dasharray="2,2,0,0"/>
        <path d="M142.463 94.653c.555-.32 1.012-.058 1.012.584v30.017c0 .643-.457 1.43-1.012 1.752l-37.487 21.643c-.556.32-1.01.058-1.01-.585v-30.017c0-.642.454-1.43 1.01-1.752l37.487-21.643z" stroke="#33475C" stroke-width="6" stroke-linecap="round" stroke-linejoin="round"/>
        <path d="M142.463 94.653c.555-.32 1.012-.058 1.012.584v30.017c0 .643-.457 1.43-1.012 1.752l-37.487 21.643c-.556.32-1.01.058-1.01-.585v-30.017c0-.642.454-1.43 1.01-1.752l37.487-21.643zm-4.838 23.61l-26.65 15.386m19.735-9.393l-11.282 6.514" stroke="#33475C" stroke-width="6" stroke-linecap="round" stroke-linejoin="round"/>
        <path d="M129.253 127.9c.055-.032.1-.006.1.058v2.956c0 .064-.045.14-.1.173l-6.75 3.943c-.056.032-.1.006-.1-.057v-2.957c0-.064.044-.14.1-.173l6.75-3.943z" stroke="#33475C" stroke-width="6" stroke-linecap="round" stroke-linejoin="round"/>
        <path d="M138.88 142.484L127 131.704c-.27-.247-.665-.308-1-.16-.335.15-.552.482-.552.85l-.004 16.04c0 .314.158.607.422.778.263.173.596.2.883.07l3.647-1.613 2.04 4.61c.1.225.287.402.517.49.107.042.22.063.334.063.128 0 .257-.027.377-.08l2.89-1.28c.224-.1.4-.285.49-.515.088-.23.082-.485-.018-.71l-2.04-4.61 3.646-1.617c.287-.126.49-.39.54-.7.05-.31-.06-.626-.292-.836zm3.832-47.398l-37.486 21.643c-.4.23-.762.858-.762 1.318v16.256l38.51-22.187v-16.88c0-.148-.04-.213-.05-.22 0 0-.004-.002-.01-.002-.025 0-.094.01-.202.07z" stroke="#33475C" stroke-width="6" stroke-linecap="round" stroke-linejoin="round"/>
        <path d="M123.478 118.174c-2.16 1.247-3.928.227-3.928-2.268 0-2.495 1.767-5.557 3.928-6.804 2.16-1.248 3.928-.227 3.928 2.268 0 2.495-1.767 5.557-3.928 6.804" stroke="#33475C" stroke-width="6" stroke-linecap="round" stroke-linejoin="round"/>
        <path d="M125.357 119.878c-1.72.994-3.13.18-3.13-1.807 0-1.987 1.41-4.427 3.13-5.42 1.722-.994 3.13-.18 3.13 1.807 0 1.987-1.408 4.427-3.13 5.42M111.91 151.26c-.062.75-.735 1.492-2.033 2.06-1.363.598-3.16.896-4.955.897h-.002c-1.796 0-3.592-.3-4.955-.896-1.298-.568-1.97-1.31-2.032-2.06l-.012-8.735h13.99v8.735z" stroke="#33475C" stroke-width="6" stroke-linecap="round" stroke-linejoin="round"/>
        <path d="M109.877 144.697c2.726-1.195 2.726-3.15 0-4.344-2.726-1.194-7.186-1.194-9.91 0-2.727 1.195-2.727 3.15 0 4.344 2.724 1.195 7.184 1.195 9.91 0z" stroke="#33475C" stroke-width="6" stroke-linecap="round" stroke-linejoin="round"/>
        <path d="M109.877 144.697c-2.726 1.194-7.186 1.194-9.91 0-1.364-.597-2.046-1.385-2.046-2.172l.013 2.986c.062.75.734 1.492 2.033 2.06 1.362.6 3.158.897 4.954.897h.002c1.796 0 3.592-.298 4.955-.896 1.3-.568 1.97-1.31 2.032-2.06v-2.873c-.062.75-.735 1.49-2.033 2.06z" stroke="#33475C" stroke-width="6" stroke-linecap="round" stroke-linejoin="round"/>
        <path d="M97.933 148.386c.06.75.734 1.49 2.032 2.06 1.363.598 3.16.896 4.955.896h.002c1.796 0 3.592-.298 4.955-.895 1.298-.57 1.97-1.31 2.032-2.06v-2.876c-.062.75-.735 1.493-2.033 2.062-1.363.597-3.16.896-4.955.896h-.002c-1.796 0-3.592-.3-4.955-.896-1.298-.57-1.97-1.31-2.032-2.06v2.874z" stroke="#33475C" stroke-width="6" stroke-linecap="round" stroke-linejoin="round"/>
        <path d="M97.933 151.26c.06.75.734 1.49 2.032 2.06 1.363.598 3.16.896 4.955.896h.002c1.796 0 3.592-.298 4.955-.895 1.298-.57 1.97-1.31 2.032-2.06v-2.874c-.062.75-.735 1.49-2.033 2.06-1.363.597-3.16.896-4.955.896h-.002c-1.796 0-3.592-.3-4.955-.896-1.298-.57-1.97-1.31-2.032-2.06v2.874z" stroke="#33475C" stroke-width="6" stroke-linecap="round" stroke-linejoin="round"/>
        <path stroke="#33475C" stroke-width="6" stroke-linecap="round" stroke-linejoin="round" d="M101.687 153.512l-2.156-.723v-7.95l2.157.582zm1.696.212c-.2 0-.36.22-.36.022v-8.25c0-.198.16-.07.36-.07.2 0 .36-.128.36.07v8.25c0 .2-.16-.022-.36-.022z"/>
        <path d="M109.877 144.697c-2.726 1.194-7.186 1.194-9.91 0-1.364-.597-2.046-1.385-2.046-2.172l.013 2.986c.062.75.734 1.492 2.033 2.06 1.362.6 3.158.897 4.954.897h.002c1.796 0 3.592-.298 4.955-.896 1.3-.568 1.97-1.31 2.032-2.06v-2.873c-.062.75-.735 1.49-2.033 2.06z" stroke="#33475C" stroke-width="6" stroke-linecap="round" stroke-linejoin="round"/>
        <path d="M97.933 148.386c.06.75.734 1.49 2.032 2.06 1.363.598 3.16.896 4.955.896h.002c1.796 0 3.592-.298 4.955-.895 1.298-.57 1.97-1.31 2.032-2.06v-2.876c-.062.75-.735 1.493-2.033 2.062-1.363.597-3.16.896-4.955.896h-.002c-1.796 0-3.592-.3-4.955-.896-1.298-.57-1.97-1.31-2.032-2.06v2.874z" stroke="#33475C" stroke-width="6" stroke-linecap="round" stroke-linejoin="round"/>
        <path d="M97.933 151.26c.06.75.734 1.49 2.032 2.06 1.363.598 3.16.896 4.955.896h.002c1.796 0 3.592-.298 4.955-.895 1.298-.57 1.97-1.31 2.032-2.06v-2.874c-.062.75-.735 1.49-2.033 2.06-1.363.597-3.16.896-4.955.896h-.002c-1.796 0-3.592-.3-4.955-.896-1.298-.57-1.97-1.31-2.032-2.06v2.874zm2.032-6.563c.504.22 1.08.387 1.68.526l6.002-5.522c-.933-.17-1.93-.247-2.928-.234l-5.355 4.926c.184.106.38.21.6.305zm3.175.569c-.036.032-.063.07-.082.11.29.05.593.084.894.117l5.727-5.285c.045-.042.072-.094.09-.15-.245-.077-.5-.145-.76-.208l-5.87 5.416z" stroke="#33475C" stroke-width="6" stroke-linecap="round" stroke-linejoin="round"/>
        <path d="M109.877 144.697c2.726-1.195 2.726-3.15 0-4.344-2.726-1.194-7.186-1.194-9.91 0-2.727 1.195-2.727 3.15 0 4.344 2.724 1.195 7.184 1.195 9.91 0z" stroke="#33475C" stroke-width="6" stroke-linecap="round" stroke-linejoin="round"/>
        <path d="M142.463 94.653c.555-.32 1.012-.058 1.012.584v30.017c0 .643-.457 1.43-1.012 1.752l-37.487 21.643c-.556.32-1.01.058-1.01-.585v-30.017c0-.642.454-1.43 1.01-1.752l37.487-21.643z" fill="#FFF"/>
        <path d="M142.463 94.653c.555-.32 1.012-.058 1.012.584v30.017c0 .643-.457 1.43-1.012 1.752l-37.487 21.643c-.556.32-1.01.058-1.01-.585v-30.017c0-.642.454-1.43 1.01-1.752l37.487-21.643z" stroke="#555" stroke-linecap="round" stroke-linejoin="round"/>
        <path d="M142.463 94.653c.555-.32 1.012-.058 1.012.584v30.017c0 .643-.457 1.43-1.012 1.752l-37.487 21.643c-.556.32-1.01.058-1.01-.585v-30.017c0-.642.454-1.43 1.01-1.752l37.487-21.643z" stroke="#33475C" stroke-linecap="round" stroke-linejoin="round"/>
        <path d="M137.625 118.264l-26.65 15.386" fill="#33475C"/>
        <path d="M137.625 118.264l-26.65 15.386" stroke="#CBD6E3" stroke-linecap="round" stroke-linejoin="round"/>
        <path d="M130.71 124.256l-11.282 6.514" fill="#33475C"/>
        <path d="M130.71 124.256l-11.282 6.514" stroke="#D4E7F8" stroke-linecap="round" stroke-linejoin="round"/>
        <path d="M129.253 127.9c.055-.032.1-.006.1.058v2.956c0 .064-.045.14-.1.173l-6.75 3.943c-.056.032-.1.006-.1-.057v-2.957c0-.064.044-.14.1-.173l6.75-3.943z" fill="#8E98DF"/>
        <path d="M129.253 127.9c.055-.032.1-.006.1.058v2.956c0 .064-.045.14-.1.173l-6.75 3.943c-.056.032-.1.006-.1-.057v-2.957c0-.064.044-.14.1-.173l6.75-3.943z" stroke="#8E98DF" stroke-linecap="round" stroke-linejoin="round"/>
        <path d="M138.88 142.484L127 131.704c-.27-.247-.665-.308-1-.16-.335.15-.552.482-.552.85l-.004 16.04c0 .314.158.607.422.778.263.173.596.2.883.07l3.647-1.613 2.04 4.61c.1.225.287.402.517.49.107.042.22.063.334.063.128 0 .257-.027.377-.08l2.89-1.28c.224-.1.4-.285.49-.515.088-.23.082-.485-.018-.71l-2.04-4.61 3.646-1.617c.287-.126.49-.39.54-.7.05-.31-.06-.626-.292-.836" fill="#E5F6F9"/>
        <path d="M138.88 142.484L127 131.704c-.27-.247-.665-.308-1-.16-.335.15-.552.482-.552.85l-.004 16.04c0 .314.158.607.422.778.263.173.596.2.883.07l3.647-1.613 2.04 4.61c.1.225.287.402.517.49.107.042.22.063.334.063.128 0 .257-.027.377-.08l2.89-1.28c.224-.1.4-.285.49-.515.088-.23.082-.485-.018-.71l-2.04-4.61 3.646-1.617c.287-.126.49-.39.54-.7.05-.31-.06-.626-.292-.836z" stroke="#33475C" stroke-linecap="round" stroke-linejoin="round"/>
        <path d="M142.712 95.086l-37.486 21.643c-.4.23-.762.858-.762 1.318v16.256l38.51-22.187v-16.88c0-.148-.04-.213-.05-.22 0 0-.004-.002-.01-.002-.025 0-.094.01-.202.07" fill="#B4BAEB"/>
        <path d="M123.478 118.174c-2.16 1.247-3.928.227-3.928-2.268 0-2.495 1.767-5.557 3.928-6.804 2.16-1.248 3.928-.227 3.928 2.268 0 2.495-1.767 5.557-3.928 6.804" fill-opacity=".5" fill="#00A4BF"/>
        <path d="M125.357 119.878c-1.72.994-3.13.18-3.13-1.807 0-1.987 1.41-4.427 3.13-5.42 1.722-.994 3.13-.18 3.13 1.807 0 1.987-1.408 4.427-3.13 5.42" fill-opacity=".5" fill="#FF8F52"/>
        <path d="M111.91 151.26c-.062.75-.735 1.492-2.033 2.06-1.363.598-3.16.896-4.955.897h-.002c-1.796 0-3.592-.3-4.955-.896-1.298-.568-1.97-1.31-2.032-2.06l-.012-8.735h13.99v8.735z" fill="#F7C364"/>
        <path d="M111.91 151.26c-.062.75-.735 1.492-2.033 2.06-1.363.598-3.16.896-4.955.897h-.002c-1.796 0-3.592-.3-4.955-.896-1.298-.568-1.97-1.31-2.032-2.06l-.012-8.735h13.99v8.735z" stroke="#33475C" stroke-linecap="round" stroke-linejoin="round"/>
        <path d="M109.877 144.697c2.726-1.195 2.726-3.15 0-4.344-2.726-1.194-7.186-1.194-9.91 0-2.727 1.195-2.727 3.15 0 4.344 2.724 1.195 7.184 1.195 9.91 0" fill="#F7C364"/>
        <path d="M109.877 144.697c2.726-1.195 2.726-3.15 0-4.344-2.726-1.194-7.186-1.194-9.91 0-2.727 1.195-2.727 3.15 0 4.344 2.724 1.195 7.184 1.195 9.91 0z" stroke="#33475C" stroke-linecap="round" stroke-linejoin="round"/>
        <path d="M109.877 144.697c-2.726 1.194-7.186 1.194-9.91 0-1.364-.597-2.046-1.385-2.046-2.172l.013 2.986c.062.75.734 1.492 2.033 2.06 1.362.6 3.158.897 4.954.897h.002c1.796 0 3.592-.298 4.955-.896 1.3-.568 1.97-1.31 2.032-2.06v-2.873c-.062.75-.735 1.49-2.033 2.06" fill="#F7C364"/>
        <path d="M109.877 144.697c-2.726 1.194-7.186 1.194-9.91 0-1.364-.597-2.046-1.385-2.046-2.172l.013 2.986c.062.75.734 1.492 2.033 2.06 1.362.6 3.158.897 4.954.897h.002c1.796 0 3.592-.298 4.955-.896 1.3-.568 1.97-1.31 2.032-2.06v-2.873c-.062.75-.735 1.49-2.033 2.06z" stroke="#33475C" stroke-linecap="round" stroke-linejoin="round"/>
        <path d="M97.933 148.386c.06.75.734 1.49 2.032 2.06 1.363.598 3.16.896 4.955.896h.002c1.796 0 3.592-.298 4.955-.895 1.298-.57 1.97-1.31 2.032-2.06v-2.876c-.062.75-.735 1.493-2.033 2.062-1.363.597-3.16.896-4.955.896h-.002c-1.796 0-3.592-.3-4.955-.896-1.298-.57-1.97-1.31-2.032-2.06v2.874z" fill="#F7C364"/>
        <path d="M97.933 148.386c.06.75.734 1.49 2.032 2.06 1.363.598 3.16.896 4.955.896h.002c1.796 0 3.592-.298 4.955-.895 1.298-.57 1.97-1.31 2.032-2.06v-2.876c-.062.75-.735 1.493-2.033 2.062-1.363.597-3.16.896-4.955.896h-.002c-1.796 0-3.592-.3-4.955-.896-1.298-.57-1.97-1.31-2.032-2.06v2.874z" stroke="#33475C" stroke-linecap="round" stroke-linejoin="round"/>
        <path d="M97.933 151.26c.06.75.734 1.49 2.032 2.06 1.363.598 3.16.896 4.955.896h.002c1.796 0 3.592-.298 4.955-.895 1.298-.57 1.97-1.31 2.032-2.06v-2.874c-.062.75-.735 1.49-2.033 2.06-1.363.597-3.16.896-4.955.896h-.002c-1.796 0-3.592-.3-4.955-.896-1.298-.57-1.97-1.31-2.032-2.06v2.874z" fill="#F7C364"/>
        <path d="M97.933 151.26c.06.75.734 1.49 2.032 2.06 1.363.598 3.16.896 4.955.896h.002c1.796 0 3.592-.298 4.955-.895 1.298-.57 1.97-1.31 2.032-2.06v-2.874c-.062.75-.735 1.49-2.033 2.06-1.363.597-3.16.896-4.955.896h-.002c-1.796 0-3.592-.3-4.955-.896-1.298-.57-1.97-1.31-2.032-2.06v2.874z" stroke="#33475C" stroke-linecap="round" stroke-linejoin="round"/>
        <path fill="#FFF" d="M101.687 153.512l-2.156-.723v-7.95l2.157.582m1.695 8.303c-.2 0-.36.22-.36.022v-8.25c0-.198.16-.07.36-.07.2 0 .36-.128.36.07v8.25c0 .2-.16-.022-.36-.022"/>
        <path d="M109.877 144.697c-2.726 1.194-7.186 1.194-9.91 0-1.364-.597-2.046-1.385-2.046-2.172l.013 2.986c.062.75.734 1.492 2.033 2.06 1.362.6 3.158.897 4.954.897h.002c1.796 0 3.592-.298 4.955-.896 1.3-.568 1.97-1.31 2.032-2.06v-2.873c-.062.75-.735 1.49-2.033 2.06z" stroke="#33475C" stroke-linecap="round" stroke-linejoin="round"/>
        <path d="M97.933 148.386c.06.75.734 1.49 2.032 2.06 1.363.598 3.16.896 4.955.896h.002c1.796 0 3.592-.298 4.955-.895 1.298-.57 1.97-1.31 2.032-2.06v-2.876c-.062.75-.735 1.493-2.033 2.062-1.363.597-3.16.896-4.955.896h-.002c-1.796 0-3.592-.3-4.955-.896-1.298-.57-1.97-1.31-2.032-2.06v2.874z" stroke="#33475C" stroke-linecap="round" stroke-linejoin="round"/>
        <path d="M97.933 151.26c.06.75.734 1.49 2.032 2.06 1.363.598 3.16.896 4.955.896h.002c1.796 0 3.592-.298 4.955-.895 1.298-.57 1.97-1.31 2.032-2.06v-2.874c-.062.75-.735 1.49-2.033 2.06-1.363.597-3.16.896-4.955.896h-.002c-1.796 0-3.592-.3-4.955-.896-1.298-.57-1.97-1.31-2.032-2.06v2.874z" stroke="#33475C" stroke-linecap="round" stroke-linejoin="round"/>
        <path d="M99.965 144.697c.504.22 1.08.387 1.68.526l6.002-5.522c-.933-.17-1.93-.247-2.928-.234l-5.355 4.926c.184.106.38.21.6.305m3.176.568c-.036.032-.063.07-.082.11.29.05.593.084.894.117l5.727-5.285c.045-.042.072-.094.09-.15-.245-.077-.5-.145-.76-.208l-5.87 5.416z" fill="#FFF"/>
        <path d="M109.877 144.697c2.726-1.195 2.726-3.15 0-4.344-2.726-1.194-7.186-1.194-9.91 0-2.727 1.195-2.727 3.15 0 4.344 2.724 1.195 7.184 1.195 9.91 0z" stroke="#33475C" stroke-linecap="round" stroke-linejoin="round"/>
        <path d="M88.804 105.527c.322-.186.585-.034.585.338v25.616c0 .372-.264.828-.586 1.013L67.14 145c-.32.186-.584.034-.584-.337v-25.616c0-.372.264-.827.585-1.013l21.664-12.507zm-2.934 4.323l-13.34 7.703m11.28-4.518l-11.28 6.514" stroke="#33475C" stroke-width="6" stroke-linecap="round" stroke-linejoin="round"/>
        <path d="M73.967 136.694c.038-.022.07-.004.07.04v2.04c0 .043-.032.096-.07.118l-5.178 3.025c-.04.02-.07.004-.07-.04v-2.04c0-.043.03-.097.07-.118l5.177-3.026zm6.917-3.994c.038-.023.07-.005.07.04v2.038c0 .044-.032.097-.07.12l-5.178 3.024c-.038.02-.07.004-.07-.04v-2.04c0-.043.032-.097.07-.118l5.178-3.025zm6.916-3.996c.038-.022.07-.004.07.04v2.04c0 .043-.032.096-.07.118l-5.178 3.025c-.038.02-.07.004-.07-.04v-2.04c0-.043.032-.097.07-.118l5.178-3.026zm.267-16.094l-19.68 11.36c-.152.088-.307.356-.307.532v10.003l19.987-11.54V112.61z" stroke="#33475C" stroke-width="6" stroke-linecap="round" stroke-linejoin="round"/>
        <path d="M80.763 116.827l-6.116 3.53c-.697 1.267-1.134 2.668-1.134 3.935 0 2.66 1.884 3.747 4.187 2.417 2.303-1.33 4.187-4.593 4.187-7.252 0-1.265-.43-2.168-1.124-2.63z" stroke="#33475C" stroke-width="6" stroke-linecap="round" stroke-linejoin="round"/>
        <path d="M77.767 128.913l3.87-2.235c.844-1.188 1.4-2.645 1.4-3.93 0-2.118-1.5-2.985-3.335-1.926-1.834 1.06-3.335 3.66-3.335 5.778 0 1.285.556 2.1 1.4 2.313zm-6.385-9.676c0-1.05-.743-1.478-1.65-.953-.91.524-1.652 1.81-1.652 2.86 0 1.048.743 1.477 1.65.953.91-.525 1.652-1.81 1.652-2.86zm14.488 6.69l-17.348 9.997m14.808-6.544l-14.807 8.55m3.573 3.3c2.726-1.195 2.726-3.15 0-4.344-2.726-1.194-7.186-1.194-9.91 0-2.727 1.195-2.727 3.15 0 4.344 2.724 1.195 7.184 1.195 9.91 0z" stroke="#33475C" stroke-width="6" stroke-linecap="round" stroke-linejoin="round"/>
        <path d="M72.096 141.23c-2.726 1.194-7.186 1.194-9.91 0-1.364-.597-2.046-1.385-2.046-2.172l.012 2.986c.062.75.734 1.49 2.033 2.06 1.362.598 3.158.896 4.954.896 1.797 0 3.593-.298 4.956-.896 1.3-.57 1.97-1.31 2.032-2.06v-2.874c-.06.75-.734 1.49-2.032 2.06z" stroke="#33475C" stroke-width="6" stroke-linecap="round" stroke-linejoin="round"/>
        <path d="M60.153 144.918c.06.75.734 1.49 2.032 2.06 1.363.598 3.16.896 4.955.896h.002c1.796 0 3.592-.298 4.955-.895 1.298-.57 1.97-1.312 2.032-2.062v-2.875c-.062.75-.735 1.492-2.033 2.06-1.363.598-3.16.897-4.955.897h-.002c-1.796 0-3.592-.3-4.955-.896-1.298-.57-1.97-1.31-2.032-2.06v2.874z" stroke="#33475C" stroke-width="6" stroke-linecap="round" stroke-linejoin="round"/>
        <path stroke="#33475C" stroke-width="6" stroke-linecap="round" stroke-linejoin="round" d="M63.907 147.114l-2.156-.697v-5.045l2.157.582zm1.695.349c-.2 0-.36.12-.36-.078v-5.355c0-.2.16-.07.36-.07.2 0 .36-.13.36.07v5.355c0 .2-.16.078-.36.078z"/>
        <path d="M72.096 141.23c-2.726 1.194-7.186 1.194-9.91 0-1.364-.597-2.046-1.385-2.046-2.172l.012 2.986c.062.75.734 1.49 2.033 2.06 1.362.598 3.158.896 4.954.896 1.797 0 3.593-.298 4.956-.896 1.3-.57 1.97-1.31 2.032-2.06v-2.874c-.06.75-.734 1.49-2.032 2.06z" stroke="#33475C" stroke-width="6" stroke-linecap="round" stroke-linejoin="round"/>
        <path d="M60.153 144.918c.06.75.734 1.49 2.032 2.06 1.363.598 3.16.896 4.955.896h.002c1.796 0 3.592-.298 4.955-.895 1.298-.57 1.97-1.312 2.032-2.062v-2.875c-.062.75-.735 1.492-2.033 2.06-1.363.598-3.16.897-4.955.897h-.002c-1.796 0-3.592-.3-4.955-.896-1.298-.57-1.97-1.31-2.032-2.06v2.874zm2.032-3.688c.504.22 1.08.387 1.68.526l6.002-5.522c-.933-.172-1.93-.248-2.928-.235l-5.355 4.925c.184.106.38.21.6.305zm3.175.568c-.036.032-.063.07-.082.11.29.05.593.084.894.117l5.727-5.285c.045-.042.072-.094.09-.15-.245-.077-.5-.145-.76-.208l-5.87 5.416z" stroke="#33475C" stroke-width="6" stroke-linecap="round" stroke-linejoin="round"/>
        <path d="M72.096 141.23c2.726-1.195 2.726-3.15 0-4.344-2.726-1.194-7.186-1.194-9.91 0-2.727 1.195-2.727 3.15 0 4.344 2.724 1.195 7.184 1.195 9.91 0z" stroke="#33475C" stroke-width="6" stroke-linecap="round" stroke-linejoin="round"/>
        <path d="M88.804 105.527c.322-.186.585-.034.585.338v25.616c0 .372-.264.828-.586 1.013L67.14 145c-.32.186-.584.034-.584-.337v-25.616c0-.372.264-.827.585-1.013l21.664-12.507z" fill="#FFF"/>
        <path d="M88.804 105.527c.322-.186.585-.034.585.338v25.616c0 .372-.264.828-.586 1.013L67.14 145c-.32.186-.584.034-.584-.337v-25.616c0-.372.264-.827.585-1.013l21.664-12.507z" stroke="#33475C" stroke-linecap="round" stroke-linejoin="round"/>
        <path d="M85.87 109.85l-13.34 7.703" fill="#33475C"/>
        <path d="M85.87 109.85l-13.34 7.703" stroke="#CBD6E3" stroke-linecap="round" stroke-linejoin="round"/>
        <path d="M83.81 113.035l-11.28 6.514" fill="#33475C"/>
        <path d="M83.81 113.035l-11.28 6.514" stroke="#D4E7F8" stroke-linecap="round" stroke-linejoin="round"/>
        <path d="M73.967 136.694c.038-.022.07-.004.07.04v2.04c0 .043-.032.096-.07.118l-5.178 3.025c-.04.02-.07.004-.07-.04v-2.04c0-.043.03-.097.07-.118l5.177-3.026z" fill="#EBF0F7"/>
        <path d="M73.967 136.694c.038-.022.07-.004.07.04v2.04c0 .043-.032.096-.07.118l-5.178 3.025c-.04.02-.07.004-.07-.04v-2.04c0-.043.03-.097.07-.118l5.177-3.026z" stroke="#EBF0F7" stroke-width=".5" stroke-linecap="round" stroke-linejoin="round"/>
        <path d="M80.884 132.7c.038-.023.07-.005.07.04v2.038c0 .044-.032.097-.07.12l-5.178 3.024c-.038.02-.07.004-.07-.04v-2.04c0-.043.032-.097.07-.118l5.178-3.025z" fill="#EBF0F7"/>
        <path d="M80.884 132.7c.038-.023.07-.005.07.04v2.038c0 .044-.032.097-.07.12l-5.178 3.024c-.038.02-.07.004-.07-.04v-2.04c0-.043.032-.097.07-.118l5.178-3.025z" stroke="#EBF0F7" stroke-width=".5" stroke-linecap="round" stroke-linejoin="round"/>
        <path d="M87.8 128.704c.038-.022.07-.004.07.04v2.04c0 .043-.032.096-.07.118l-5.178 3.025c-.038.02-.07.004-.07-.04v-2.04c0-.043.032-.097.07-.118l5.178-3.026z" fill="#EBF0F7"/>
        <path d="M87.8 128.704c.038-.022.07-.004.07.04v2.04c0 .043-.032.096-.07.118l-5.178 3.025c-.038.02-.07.004-.07-.04v-2.04c0-.043.032-.097.07-.118l5.178-3.026z" stroke="#EBF0F7" stroke-width=".5" stroke-linecap="round" stroke-linejoin="round"/>
        <path d="M88.067 112.61l-19.68 11.36c-.152.088-.307.356-.307.532v10.003l19.987-11.54V112.61z" fill="#B4BAEB"/>
        <path d="M80.763 116.827l-6.116 3.53c-.697 1.267-1.134 2.668-1.134 3.935 0 2.66 1.884 3.747 4.187 2.417 2.303-1.33 4.187-4.593 4.187-7.252 0-1.265-.43-2.168-1.124-2.63" fill-opacity=".5" fill="#00A4BF"/>
        <path d="M77.767 128.913l3.87-2.235c.844-1.188 1.4-2.645 1.4-3.93 0-2.118-1.5-2.985-3.335-1.926-1.834 1.06-3.335 3.66-3.335 5.778 0 1.285.556 2.1 1.4 2.313" fill-opacity=".5" fill="#FF8F52"/>
        <path d="M71.382 119.237c0-1.05-.743-1.478-1.65-.953-.91.524-1.652 1.81-1.652 2.86 0 1.048.743 1.477 1.65.953.91-.525 1.652-1.81 1.652-2.86" fill="#EBF0F7"/>
        <path d="M85.87 125.927l-17.348 9.997" fill="#33475C"/>
        <path d="M85.87 125.927l-17.348 9.997" stroke="#D4E7F8" stroke-linecap="round" stroke-linejoin="round"/>
        <path d="M83.33 129.38l-14.807 8.55" fill="#33475C"/>
        <path d="M83.33 129.38l-14.807 8.55" stroke="#D4E7F8" stroke-linecap="round" stroke-linejoin="round"/>
        <path d="M72.096 141.23c2.726-1.195 2.726-3.15 0-4.344-2.726-1.194-7.186-1.194-9.91 0-2.727 1.195-2.727 3.15 0 4.344 2.724 1.195 7.184 1.195 9.91 0" fill="#F7C364"/>
        <path d="M72.096 141.23c2.726-1.195 2.726-3.15 0-4.344-2.726-1.194-7.186-1.194-9.91 0-2.727 1.195-2.727 3.15 0 4.344 2.724 1.195 7.184 1.195 9.91 0z" stroke="#33475C" stroke-linecap="round" stroke-linejoin="round"/>
        <path d="M72.096 141.23c-2.726 1.194-7.186 1.194-9.91 0-1.364-.597-2.046-1.385-2.046-2.172l.012 2.986c.062.75.734 1.49 2.033 2.06 1.362.598 3.158.896 4.954.896 1.797 0 3.593-.298 4.956-.896 1.3-.57 1.97-1.31 2.032-2.06v-2.874c-.06.75-.734 1.49-2.032 2.06" fill="#F7C364"/>
        <path d="M72.096 141.23c-2.726 1.194-7.186 1.194-9.91 0-1.364-.597-2.046-1.385-2.046-2.172l.012 2.986c.062.75.734 1.49 2.033 2.06 1.362.598 3.158.896 4.954.896 1.797 0 3.593-.298 4.956-.896 1.3-.57 1.97-1.31 2.032-2.06v-2.874c-.06.75-.734 1.49-2.032 2.06z" stroke="#33475C" stroke-linecap="round" stroke-linejoin="round"/>
        <path d="M60.153 144.918c.06.75.734 1.49 2.032 2.06 1.363.598 3.16.896 4.955.896h.002c1.796 0 3.592-.298 4.955-.895 1.298-.57 1.97-1.312 2.032-2.062v-2.875c-.062.75-.735 1.492-2.033 2.06-1.363.598-3.16.897-4.955.897h-.002c-1.796 0-3.592-.3-4.955-.896-1.298-.57-1.97-1.31-2.032-2.06v2.874z" fill="#F7C364"/>
        <path d="M60.153 144.918c.06.75.734 1.49 2.032 2.06 1.363.598 3.16.896 4.955.896h.002c1.796 0 3.592-.298 4.955-.895 1.298-.57 1.97-1.312 2.032-2.062v-2.875c-.062.75-.735 1.492-2.033 2.06-1.363.598-3.16.897-4.955.897h-.002c-1.796 0-3.592-.3-4.955-.896-1.298-.57-1.97-1.31-2.032-2.06v2.874z" stroke="#33475C" stroke-linecap="round" stroke-linejoin="round"/>
        <path fill="#FFF" d="M63.907 147.114l-2.156-.697v-5.045l2.157.582m1.694 5.509c-.2 0-.36.12-.36-.078v-5.355c0-.2.16-.07.36-.07.2 0 .36-.13.36.07v5.355c0 .2-.16.078-.36.078"/>
        <path d="M72.096 141.23c-2.726 1.194-7.186 1.194-9.91 0-1.364-.597-2.046-1.385-2.046-2.172l.012 2.986c.062.75.734 1.49 2.033 2.06 1.362.598 3.158.896 4.954.896 1.797 0 3.593-.298 4.956-.896 1.3-.57 1.97-1.31 2.032-2.06v-2.874c-.06.75-.734 1.49-2.032 2.06z" stroke="#33475C" stroke-linecap="round" stroke-linejoin="round"/>
        <path d="M60.153 144.918c.06.75.734 1.49 2.032 2.06 1.363.598 3.16.896 4.955.896h.002c1.796 0 3.592-.298 4.955-.895 1.298-.57 1.97-1.312 2.032-2.062v-2.875c-.062.75-.735 1.492-2.033 2.06-1.363.598-3.16.897-4.955.897h-.002c-1.796 0-3.592-.3-4.955-.896-1.298-.57-1.97-1.31-2.032-2.06v2.874z" stroke="#33475C" stroke-linecap="round" stroke-linejoin="round"/>
        <path d="M62.185 141.23c.504.22 1.08.387 1.68.526l6.002-5.522c-.933-.172-1.93-.248-2.928-.235l-5.355 4.925c.184.106.38.21.6.305m3.176.569c-.036.032-.063.07-.082.11.29.05.593.084.894.117l5.727-5.285c.045-.042.072-.094.09-.15-.245-.077-.5-.145-.76-.208l-5.87 5.416z" fill="#FFF"/>
        <path d="M72.096 141.23c2.726-1.195 2.726-3.15 0-4.344-2.726-1.194-7.186-1.194-9.91 0-2.727 1.195-2.727 3.15 0 4.344 2.724 1.195 7.184 1.195 9.91 0z" stroke="#33475C" stroke-linecap="round" stroke-linejoin="round"/>
        <path d="M126.212 69.31c.322-.186.585-.034.585.338v17.346c0 .37-.263.827-.585 1.012l-21.663 12.508c-.322.185-.586.033-.586-.338V82.83c0-.372.264-.827.585-1.013L126.21 69.31zm-4.598 17.248l-15.88 9.168m11.282-4.516l-11.282 6.513" stroke="#33475C" stroke-width="6" stroke-linecap="round" stroke-linejoin="round"/>
        <path d="M126.296 69.842L104.798 82.25c-.165.096-.334.39-.334.58v10.927l21.832-12.605v-11.31z" stroke="#33475C" stroke-width="6" stroke-linecap="round" stroke-linejoin="round"/>
        <path d="M118.318 74.447l-6.68 3.856c-.762 1.384-1.24 2.914-1.24 4.298 0 2.905 2.06 4.094 4.574 2.64 2.515-1.45 4.573-5.015 4.573-7.92 0-1.38-.47-2.367-1.227-2.873z" stroke="#33475C" stroke-width="6" stroke-linecap="round" stroke-linejoin="round"/>
        <path d="M115.045 87.648l4.228-2.44c.92-1.3 1.53-2.89 1.53-4.294 0-2.314-1.64-3.26-3.644-2.103-2.005 1.158-3.645 3.998-3.645 6.312 0 1.403.61 2.293 1.53 2.526zm-5.945 12.729c2.725-1.195 2.725-3.15 0-4.344-2.727-1.194-7.187-1.194-9.913 0-2.725 1.195-2.725 3.15 0 4.344 2.726 1.195 7.186 1.195 9.912 0z" stroke="#33475C" stroke-width="6" stroke-linecap="round" stroke-linejoin="round"/>
        <path d="M109.1 100.377c-2.727 1.194-7.187 1.194-9.912 0-1.363-.597-2.045-1.385-2.045-2.172l.012 2.986c.062.75.734 1.492 2.033 2.062 1.362.597 3.158.895 4.954.895h.002c1.796 0 3.592-.298 4.955-.895 1.298-.57 1.97-1.31 2.03-2.06v-2.875c-.06.75-.733 1.49-2.03 2.06z" stroke="#33475C" stroke-width="6" stroke-linecap="round" stroke-linejoin="round"/>
        <path stroke="#33475C" stroke-width="6" stroke-linecap="round" stroke-linejoin="round" d="M100.91 103.51l-2.156-.95v-2.04l2.155.58zm1.695.174c-.2 0-.36.116-.36-.082v-2.426c0-.2.16-.07.36-.07.2 0 .36-.13.36.07v2.514c0 .2-.16-.006-.36-.006z"/>
        <path d="M109.1 100.377c-2.727 1.194-7.187 1.194-9.912 0-1.363-.597-2.045-1.385-2.045-2.172l.012 2.986c.062.75.734 1.492 2.033 2.062 1.362.597 3.158.895 4.954.895h.002c1.796 0 3.592-.298 4.955-.895 1.298-.57 1.97-1.31 2.03-2.06v-2.875c-.06.75-.733 1.49-2.03 2.06z" stroke="#33475C" stroke-width="6" stroke-linecap="round" stroke-linejoin="round"/>
        <path d="M99.187 100.377c.504.22 1.08.387 1.68.526l6.002-5.522c-.934-.17-1.932-.247-2.93-.234l-5.353 4.926c.184.106.38.21.6.305zm3.175.568c-.035.032-.063.07-.08.11.29.05.592.084.892.117l5.727-5.285c.047-.042.075-.094.093-.15-.245-.077-.5-.145-.76-.208l-5.87 5.415z" stroke="#33475C" stroke-width="6" stroke-linecap="round" stroke-linejoin="round"/>
        <path d="M109.1 100.377c2.725-1.195 2.725-3.15 0-4.344-2.727-1.194-7.187-1.194-9.913 0-2.725 1.195-2.725 3.15 0 4.344 2.726 1.195 7.186 1.195 9.912 0z" stroke="#33475C" stroke-width="6" stroke-linecap="round" stroke-linejoin="round"/>
        <path d="M126.212 69.31c.322-.186.585-.034.585.338v17.346c0 .37-.263.827-.585 1.012l-21.663 12.508c-.322.185-.586.033-.586-.338V82.83c0-.372.264-.827.585-1.013L126.21 69.31z" fill="#FFF"/>
        <path d="M126.212 69.31c.322-.186.585-.034.585.338v17.346c0 .37-.263.827-.585 1.012l-21.663 12.508c-.322.185-.586.033-.586-.338V82.83c0-.372.264-.827.585-1.013L126.21 69.31z" stroke="#33475C" stroke-linecap="round" stroke-linejoin="round"/>
        <path d="M121.614 86.558l-15.88 9.168" fill="#33475C"/>
        <path d="M121.614 86.558l-15.88 9.168" stroke="#CBD6E3" stroke-linecap="round" stroke-linejoin="round"/>
        <path d="M117.016 91.21l-11.282 6.513" fill="#33475C"/>
        <path d="M117.016 91.21l-11.282 6.513" stroke="#D4E7F8" stroke-linecap="round" stroke-linejoin="round"/>
        <path d="M126.296 69.842L104.798 82.25c-.165.096-.334.39-.334.58v10.927l21.832-12.605v-11.31z" fill="#B4BAEB"/>
        <path d="M118.318 74.447l-6.68 3.856c-.762 1.384-1.24 2.914-1.24 4.298 0 2.905 2.06 4.094 4.574 2.64 2.515-1.45 4.573-5.015 4.573-7.92 0-1.38-.47-2.367-1.227-2.873" fill-opacity=".5" fill="#00A4BF"/>
        <path d="M115.045 87.648l4.228-2.44c.92-1.3 1.53-2.89 1.53-4.294 0-2.314-1.64-3.26-3.644-2.103-2.005 1.158-3.645 3.998-3.645 6.312 0 1.403.61 2.293 1.53 2.526" fill-opacity=".5" fill="#FF8F52"/>
        <path d="M109.1 100.377c2.725-1.195 2.725-3.15 0-4.344-2.727-1.194-7.187-1.194-9.913 0-2.725 1.195-2.725 3.15 0 4.344 2.726 1.195 7.186 1.195 9.912 0" fill="#F7C364"/>
        <path d="M109.1 100.377c2.725-1.195 2.725-3.15 0-4.344-2.727-1.194-7.187-1.194-9.913 0-2.725 1.195-2.725 3.15 0 4.344 2.726 1.195 7.186 1.195 9.912 0z" stroke="#33475C" stroke-linecap="round" stroke-linejoin="round"/>
        <path d="M109.1 100.377c-2.727 1.194-7.187 1.194-9.912 0-1.363-.597-2.045-1.385-2.045-2.172l.012 2.986c.062.75.734 1.492 2.033 2.062 1.362.597 3.158.895 4.954.895h.002c1.796 0 3.592-.298 4.955-.895 1.298-.57 1.97-1.31 2.03-2.06v-2.875c-.06.75-.733 1.49-2.03 2.06" fill="#F7C364"/>
        <path d="M109.1 100.377c-2.727 1.194-7.187 1.194-9.912 0-1.363-.597-2.045-1.385-2.045-2.172l.012 2.986c.062.75.734 1.492 2.033 2.062 1.362.597 3.158.895 4.954.895h.002c1.796 0 3.592-.298 4.955-.895 1.298-.57 1.97-1.31 2.03-2.06v-2.875c-.06.75-.733 1.49-2.03 2.06z" stroke="#33475C" stroke-linecap="round" stroke-linejoin="round"/>
        <path fill="#FFF" d="M100.91 103.51l-2.156-.95v-2.04l2.155.58m1.696 2.584c-.2 0-.36.116-.36-.082v-2.426c0-.2.16-.07.36-.07.2 0 .36-.13.36.07v2.514c0 .2-.16-.006-.36-.006"/>
        <path d="M109.1 100.377c-2.727 1.194-7.187 1.194-9.912 0-1.363-.597-2.045-1.385-2.045-2.172l.012 2.986c.062.75.734 1.492 2.033 2.062 1.362.597 3.158.895 4.954.895h.002c1.796 0 3.592-.298 4.955-.895 1.298-.57 1.97-1.31 2.03-2.06v-2.875c-.06.75-.733 1.49-2.03 2.06z" stroke="#33475C" stroke-linecap="round" stroke-linejoin="round"/>
        <path d="M99.187 100.377c.504.22 1.08.387 1.68.526l6.002-5.522c-.934-.17-1.932-.247-2.93-.234l-5.353 4.926c.184.106.38.21.6.305m3.176.567c-.035.032-.063.07-.08.11.29.05.592.084.892.117l5.727-5.285c.047-.042.075-.094.093-.15-.245-.077-.5-.145-.76-.208l-5.87 5.415z" fill="#FFF"/>
        <path d="M109.1 100.377c2.725-1.195 2.725-3.15 0-4.344-2.727-1.194-7.187-1.194-9.913 0-2.725 1.195-2.725 3.15 0 4.344 2.726 1.195 7.186 1.195 9.912 0z" stroke="#33475C" stroke-linecap="round" stroke-linejoin="round"/>
    </g>
</svg>
