<svg xmlns="http://www.w3.org/2000/svg" viewBox="0 0 100 100" width="100" height="100">
    <defs>
        <mask id="a" x="33.48" y="3.44" width="66.52" height="90.99" maskUnits="userSpaceOnUse">
            <path fill-rule="evenodd" fill="#fff" d="M33.48 3.44H100v91H33.48v-91z"/>
        </mask>
    </defs>
    <path d="M16.5 94.44A16.46 16.46 0 0 1 2.19 69.85l33.48-58.14a16.56 16.56 0 0 1 22.54-6.09A16.38 16.38 0 0 1 64.33 28L30.85 86.17a16.53 16.53 0 0 1-14.35 8.27" fill="#fbbd04" fill-rule="evenodd"/>
    <path d="M16.52 94.43c-.54 0-1.09 0-1.63-.08s-1.07-.14-1.6-.24-1-.24-1.57-.39-1-.34-1.52-.54-1-.44-1.46-.69-.94-.49-1.39-.82a16.7 16.7 0 0 1-2.51-2c-.38-.38-.75-.78-1.09-1.19s-.66-.86-1-1.3-.58-.92-.83-1.38-.49-1-.69-1.46a16 16 0 0 1-.55-1.51A16.45 16.45 0 0 1 0 78a14.47 14.47 0 0 1 .09-1.6 14 14 0 0 1 .24-1.6 14.23 14.23 0 0 1 .39-1.56 16 16 0 0 1 .55-1.51c.2-.49.44-1 .69-1.46s.53-.93.83-1.38.62-.88 1-1.3.71-.81 1.09-1.19a16.7 16.7 0 0 1 2.51-2.05c.45-.29.91-.57 1.39-.82s1-.48 1.46-.69 1-.39 1.52-.54 1-.29 1.57-.39a14.72 14.72 0 0 1 1.6-.24 16 16 0 0 1 3.25 0 14.36 14.36 0 0 1 1.6.24c.53.1 1.06.24 1.57.39a15.18 15.18 0 0 1 1.52.54c.5.21 1 .44 1.46.69s.95.53 1.4.82.88.62 1.3 1 .83.71 1.21 1.09a15.06 15.06 0 0 1 1.08 1.19 14.48 14.48 0 0 1 1 1.3 15.29 15.29 0 0 1 .83 1.38 14.86 14.86 0 0 1 .69 1.46 16 16 0 0 1 .55 1.51c.16.51.29 1 .4 1.56s.19 1.06.24 1.6S33 77.48 33 78s0 1.08-.08 1.61-.14 1.08-.24 1.6-.24 1-.4 1.56a16 16 0 0 1-.55 1.51 14.86 14.86 0 0 1-.69 1.46 15.29 15.29 0 0 1-.83 1.38c-.29.44-.62.88-1 1.3a15.06 15.06 0 0 1-1.08 1.19c-.38.38-.8.75-1.21 1.09s-.86.66-1.3 1-.92.57-1.4.82-1 .48-1.46.69-1 .38-1.52.54-1 .28-1.57.39-1.06.19-1.6.24-1.08.08-1.62.08" fill="#33a952" fill-rule="evenodd"/>
    <g mask="url(#a)">
        <path d="M83.5 94.44a16.53 16.53 0 0 1-14.35-8.27L35.67 28a16.38 16.38 0 0 1 6.12-22.38 16.56 16.56 0 0 1 22.54 6.09l33.48 58.14A16.46 16.46 0 0 1 83.5 94.44" fill="#408cd9" fill-rule="evenodd"/>
    </g>
</svg>
