<svg xmlns="http://www.w3.org/2000/svg" viewBox="0 0 100 100" width="100" height="100">
    <defs>
        <style>
            .a{fill:#fff;fill-rule:evenodd}
        </style>
        <mask id="a" x="0" y="0" width="100" height="100" maskUnits="userSpaceOnUse">
            <path class="a" d="M0 0h100v100H0V0z"/>
        </mask>
    </defs>
    <g mask="url(#a)">
        <path d="M0 7.16A7.28 7.28 0 0 1 7.39 0h85.22A7.28 7.28 0 0 1 100 7.16v85.68a7.28 7.28 0 0 1-7.39 7.16H7.39A7.28 7.28 0 0 1 0 92.84z" fill="#069" fill-rule="evenodd"/>
    </g>
    <path class="a" d="M22.76 32.39c5.27 0 8.55-3.47 8.55-7.8s-3.28-7.8-8.45-7.8-8.54 3.37-8.54 7.8 3.27 7.8 8.34 7.8zm-7.55 51.32h15.1V38.56h-15.1zM38.67 83.71h15.1V58.49a10.2 10.2 0 0 1 .5-3.66A8.27 8.27 0 0 1 62 49.34c5.47 0 7.65 4.14 7.65 10.21v24.16h15.13V57.82c0-13.82-7.46-20.32-17.39-20.32-8.15 0-11.73 4.52-13.72 7.6h.1v-6.55h-15.1c.2 4.24 0 45.16 0 45.16z"/>
</svg>
