<svg id="Layer_1" data-name="Layer 1" xmlns="http://www.w3.org/2000/svg" xmlns:xlink="http://www.w3.org/1999/xlink" viewBox="0 0 800.17 795.19"><defs><linearGradient id="linear-gradient" y1="397.59" x2="800.17" y2="397.59" gradientUnits="userSpaceOnUse"><stop offset="0" stop-color="#ec7f3d"/><stop offset="1" stop-color="#e85c39"/></linearGradient></defs><path d="M698,793.77c-142.86-10.09-282.52,19.85-418.12-20C96.78,719.86-25.24,527.46,4.45,347.82,39.44,136.1,201.28-5.55,405.31.17,565.4,4.65,686.9,78.48,756.89,222.09,826.74,365.41,811.14,505.5,716.61,636c-10.5,14.5-16.26,34.73-17.87,52.87C695.9,720.84,698,753.28,698,793.77ZM604.38,598.43c-15.1-16.73-40.43-44-58.07-63.56,5.79-7.61,10.6-13.64,15.1-19.89,52.17-72.45,51.89-167.75-.65-239-52.41-71-139.07-98.69-224.1-71.57-81.42,26-137.4,104.42-137,192C200,486.27,254.09,564.07,343,585.37c53,12.71,109.94,9.85,165.17,12.8Z" style="fill:url(#linear-gradient)"/></svg>